<?xml version="1.0" encoding="utf-8"?>
<!-- Generator: Adobe Illustrator 22.1.0, SVG Export Plug-In . SVG Version: 6.00 Build 0)  -->
<svg version="1.1" id="Layer_1" focusable="false" xmlns="http://www.w3.org/2000/svg" xmlns:xlink="http://www.w3.org/1999/xlink"
	 x="0px" y="0px" viewBox="0 0 496 512" style="enable-background:new 0 0 496 512;" xml:space="preserve">
<path d="M248,8.1c-137,0-248,111-248,248s111,248,248,248s248-111,248-248S385,8.1,248,8.1z M50,256.1c0-43.5,13.9-84.8,39.7-118.9
	c5.5,0.1,11.7,0.2,18.7-0.2c39.3-2,36.7-24,45.3-36.7c7.3-10.7,12.7-19.5,22.2-28.8c22.7-8.8,47-13.5,72.1-13.5
	c52,0,101,19.9,138.1,56.2c-0.4,2.3-1.2,4.3-2.5,6.1c-12.7,17.3,9.3,38.7,4.7,63.3c-4.7,24.7-2.7,4-22.7-32.7s-8.7-28-18.7-32.7
	c-10-4.7,2,15.3-19.3,14.7c-21.3-0.7-12.7,29.3,12,32c24.7,2.7,19.3,33.3,11.3,26s-2,21.3-12.7,24c-10.7,2.7-14.7,12.7-4.7,19.3
	c10,6.7,2.7,32-10.4,6.7c-13.1-25.3-36.9-20.7-22.2-2.7c40.7,52-11.3,59.3-31.3,60.7s16,19.3,16,19.3S284.3,339,265,329
	s-1.3,24.7,2.7,34s16,19.3,38,26c6.7,2,11.5,2.9,14.3,3.2c4.3-0.2,4.3,0.5,0,0c-2.3,0.1-5.7,0.5-10.3,1.5c-19.3,4-41.3-10-50-29.3
	c-5.7-12.7-6.2-20.5-6.1-29.1c0-4.5,0.2-9.2,0-15c-0.8-16.8-15.8,0.8-21.2-9.9c-5.3-10.7-10.7-10.7-18-12.7c-7.3-2-16,16-19.3,28.7
	c-3.3,12.7-8.7,27.3-15.3,10.7c-6.7-16.7-24-34-33.3-46.7c-9.3-12.7-28.7-3.3-35.3-2.7c-6.7,0.7-25.3-1.3-32-8.7s-10,0-4,10.7
	c6,10.7,23.3-1.3,36,3.3s-4,15.3-9.3,16.7c-5.3,1.3-20,8.7-8.7,10c10.4,1.2-1.7,16.6-14.6,38.7C59.9,327.8,50,292.7,50,256.1z
	 M402,367c-1.8,0.3-6.8,2.8-8.3,5c-1.6,2.2-11.4,2-12.9,0c-1.5-2,0-6-3.8-6s-18.3-3-19-9c-0.5-4.3,6.3,0.5,12.5,3.3s7-2,17-5.8
	c10-3.8,15.5,1,18.5,4.3S403.8,366.8,402,367z M331,337c0-11.3-21.3-29.3-11.3-29.3s20,10,21.3,18S331,337,331,337z M324.3,363
	c-8.8,0.8,0.5-3.8,8-8.5c0,0,4.8-0.3,5.3,1.5S333,362.3,324.3,363z M319.7,329c0,0-2,56.3-29.3,40c-10.7-6.4,6-12.7,15.3-20.7
	C315,340.3,319.7,329,319.7,329z M388,396.1c-27,27-60.5,45.3-97,53.3c1.5-7.9,1-18.4,6.7-23.8c8.6-8.1,26.7-8.2,35.3-16
	c11.7-10.6,19.1-25,26-24.7c16,0.7,6,28,14,18c4-5,11.8-14.6,16-14.7c1.7,0,2.7,1.4,3.4,3.2C391,393.1,389.5,394.6,388,396.1z"/>
</svg>
