<?xml version="1.0" encoding="utf-8"?>
<!-- Generator: Adobe Illustrator 22.1.0, SVG Export Plug-In . SVG Version: 6.00 Build 0)  -->
<svg version="1.1" id="Layer_1" focusable="false" xmlns="http://www.w3.org/2000/svg" xmlns:xlink="http://www.w3.org/1999/xlink"
	 x="0px" y="0px" viewBox="0 0 496 512" style="enable-background:new 0 0 496 512;" xml:space="preserve">
<path d="M248,8.1c-137,0-248,111-248,248s111,248,248,248s248-111,248-248S385,8.1,248,8.1z M371,238c-5-12-31-15-49-10
	c0,0,30-15,44-9s30,22,35,31.4S376,250,371,238z M379.9,268.1c-3.1,3.8-13.9-1.1-13.9-1.1c-5-11,4.7-12.8,9.1-10.3
	C379.5,259.3,383,264.3,379.9,268.1z M402.2,263.9c4-4,3-15.6,7.1-17.1s22.7,8.1,26.8,8.5c4.2,0.5,10.4,3.2,5.9,6
	c-4.5,2.8-10,2.3-17.1,1.2c-7.1-1.1-10.6,0.6-12.3,1.8C411,265.6,399.5,266.6,402.2,263.9z M248,58.1c26.8,0,52.8,5.3,76.8,15.4
	C308.3,84.8,285.3,99.3,277,107c-14,13-39,34-43,46s-20,46-18,60s-11,46.2,18,43.1c29-3.1,46-51.1,56-38.1s-1,38-8,48s15,18,29,16
	s-17,21-3,35s16,32,30,24s22-9,22-9c2.5,5.3,6.6,11.6,12,12c5.1,0.4,7.8-5.5,17.5-14c15.4-13.6,19.4-16.8,24.5-20
	c5.1-3.2,15.2,1.8,20.9,11.6c-9.7,27.7-25.6,53.1-46.9,74.5c-17.2,17.2-37.1,30.9-58.6,40.6c-0.2-9.7,0.3-20,2.6-27.7
	c6-20,40-18,33-48s-21-2-50-12s-27-24-29-38s-30-9-38-12s-12-21-23-25s-11,8-22,8s-35-15-46-21s-9-19-8-33c1-14-7-17-17-23
	s-19-50-31.7-61s6.7,52,11.7,67s12,22,0,13c-11.7-8.8-22.4-37.4-29.4-76.8c7.3-11.1,15.8-21.5,25.4-31.1
	C145.4,78.7,195.1,58.1,248,58.1z"/>
</svg>
