<?xml version="1.0" encoding="utf-8"?>
<!-- Generator: Adobe Illustrator 22.1.0, SVG Export Plug-In . SVG Version: 6.00 Build 0)  -->
<svg version="1.1" id="Layer_1" focusable="false" xmlns="http://www.w3.org/2000/svg" xmlns:xlink="http://www.w3.org/1999/xlink"
	 x="0px" y="0px" viewBox="0 0 496 512" style="enable-background:new 0 0 496 512;" xml:space="preserve">
<path d="M496,256.1c0-137-111-248-248-248S0,119.1,0,256.1v0.1v0.1c0,137,111,248,248,248s248-111,248-248
	C496,256.3,496,256.2,496,256.1C496,256.2,496,256.1,496,256.1z M388,396.1c-20.7,20.7-45.3,36.3-72,46.1c-1.4-7.3-3.4-15.5-10.9-22
	c-4.9-4.2-6.9-3.1-10.4-7.6c-5.2-6.6-4.5-13.8-4.7-30.3c-0.3-16.5-0.4-24.8-1.9-27.5c-4.3-7.9-11.5-7.8-42.7-18
	c-30.5-10-36-14.1-39.8-19.9c-5.4-8.3-3.2-13.8-9.5-19c-8.7-7.1-18.6-1-30.3-2.8c-23-3.7-43.5-36.7-46.4-65.4
	c-2.8-27.6,11.3-44.6-0.9-60.7c-5.7-7.5-11.1-6.9-15.2-15.2c-6.3-12.9-0.2-28.7,3.9-36.7c0.3-0.3,0.6-0.7,1-1
	c12.2-12.2,25.7-22.6,40.1-31c7.4-3.4,16.3-7.3,27.1-11.8c6.9-2.9,13.1-5.4,18.6-7.7c17.4-4.9,35.6-7.5,54.2-7.5c2,0,4,0,6,0.1
	c10.7,4.9,25.1,13.3,59.6,24.5c19.1,6.2,33.7,9.9,35.1,19c1,6.5-5.2,13.6-11.4,17.1c-11.9,6.6-21.5-1.9-44.5-2.8
	c-1.6-0.1-37.1-1.3-40.8,10.4c-2.4,7.7,8.9,21.2,19.9,21.8c9.1,0.5,12.1-8,26.5-14.2c11.8-5.1,22.3-4.9,28.4-4.7
	c31.6,0.7,65,26.9,61.6,40.8c-2.6,10.6-24.4,3.8-47.4,23.7c-14.4,12.5-9.7,18.5-27.5,36c-17.7,17.5-31.9,20.9-31.3,30.3
	c0.6,10,16.8,12.4,17.1,23.7c0.2,7.1-6,15.7-12.3,16.1c-12.7,0.9-16.2-31.6-35.1-35.1c-13.1-2.4-28.3,10-27.5,17.1
	c0.6,5,8.8,5.1,21.8,15.2c7.8,6,9.9,9.8,16.1,16.1c0,0,15.5,15.7,35.1,23.7c30.2,12.3,44.5-12.3,73.9-1.9
	c16.5,5.8,31.8,20.5,36.6,37.9C402,381,395.3,388.8,388,396.1z"/>
</svg>
