<?xml version="1.0" encoding="utf-8"?>
<!-- Generator: Adobe Illustrator 22.1.0, SVG Export Plug-In . SVG Version: 6.00 Build 0)  -->
<svg version="1.1" xmlns="http://www.w3.org/2000/svg" xmlns:xlink="http://www.w3.org/1999/xlink" x="0px" y="0px"
	 viewBox="0 0 496 512" style="enable-background:new 0 0 496 512;" xml:space="preserve">
<g id="Layer_1" focusable="false">
	<path d="M248,8.1c-137,0-248,111-248,248s111,248,248,248s248-111,248-248S385,8.1,248,8.1z M254.8,348.7c-0.1,3.7-3.6,9.7-6.3,8.6
		c-9.6,14.5-17.1-11.7-17-19.3C242,338.5,255.2,334.8,254.8,348.7z M250,332.3c1.6-1.4,5.4-0.7,4.9,1.9
		C252.9,335.9,251.3,335.3,250,332.3z M264.3,86.6c16.7-3.3,20.1,11.3,12.3,18.2c-6.8,6.1-27.7,0.6-25.9-1c6.3,4,26.4-5.4,28-8.1
		C274.7,92.8,267.8,90.3,264.3,86.6z M245.8,86.4c-4.6-1.1-4.6-2.4-0.1-3.8C249.6,83.6,249.6,84.8,245.8,86.4z M373.2,203.6
		C369.8,206.3,367.7,199.9,373.2,203.6L373.2,203.6z M367,197C371.6,205.8,360.7,197.1,367,197L367,197z M365.6,207.6
		c-3.9,6.6-18.1-11.4-18.9-13.5C347.5,194.1,367.3,204.8,365.6,207.6z M325.8,132.1c-2.9,0.3-4.7-0.7-5.5-3.1
		C320.7,125.3,334.1,128.8,325.8,132.1z M314,116.6c3.8,0.6,7,3.3,10,5.7C320,123.1,315.5,120.4,314,116.6z M327.6,120.7
		c2.7,2.5,4,6.2,5.3,9.6C329,128.9,325.3,124.3,327.6,120.7z M337.5,137.1c-3.1,1.5-5.4,0-7-4.5C335.5,132,337.9,133.5,337.5,137.1z
		 M309.4,119.1C313.6,127.5,305.8,120.8,309.4,119.1L309.4,119.1z M302.4,111c3.4,0.5,5.6,2.5,6.2,5.7
		C304.2,116.3,302,114.2,302.4,111z M290.7,101.3c3.7,2.7,12.9,9.6,6.8,14.5C295.6,110.3,289.8,107.5,290.7,101.3z M368.4,392.6
		c-0.6-2.2,0-3.8,1.7-4.8c-18.8,1.9,24.8-54.2,30.7-51.7c0.4,5.7,4.2,5.3,8.8,4.2c10.2-2.3-1.6-7.9-1.2-9.7
		c2.5-11.7-10.9-29.6-8.7-41c3.1,1.7,17.3,14.8,12.5,18c2.8,2,3.7,1.2,2.6-2.5c0,0,9,10.2,9.7,11.1c1.4,1.9,7.2-4.5,9.5-2.8
		c-0.5-0.4-39.8,62.8-47.2,67.2c-6.8,4.1-11.7,6.3-15.1,7C375,388.2,371.2,392.6,368.4,392.6z M174.6,90.8c4.1,1,14.1-9.1,19.8-9.4
		c8.2-0.4,59.3,20.2,57.7,29.6c-1.5,1.4-3.3,2.1-5.2,2c-2,12.4,20.7,12.3,22.7,17.1c-2-0.1-4,0.3-5.9,1.1c3.5-0.3,5.6,1.3,6.2,4.9
		c-17.6,2.3-25.5-14.7-40.6-16.8c-1.1-0.1-13.5,8-17.7,8.5c-8.2,0.8-9.9-7.1-21.8-4.2c-0.4-21.6,3.8-14.7-19.7-27.3
		c-6.7-3.6-6.8-2.2-15-7.3c2-1.3,4.1-2,6.5-1.9c-2.7-1.8-5.2-3.6-8-5c4-2.2,8-4.2,12.2-6.1C170.5,80.3,168.2,89.2,174.6,90.8z
		 M186.8,155.4c-1.6,4.3-3.2,4.6-4.8,1C183.5,153.2,185.1,152.8,186.8,155.4z M167.7,110.7c0-3.5,1.5-5.6,4.5-6.3
		C173.8,104.5,172.7,118.7,167.7,110.7z M153.9,113.4c1.5,4.8,0.4,7.2-3.1,6.9C149.7,117.6,150.7,115.3,153.9,113.4z M68.4,197.2
		c19.7-8.4,22.2-11.7,33.6-27c1.2,0.9,2.1,2.1,2.7,3.4c2.7-30.8,45-0.7,44.2-29.6c-6.2-0.5-1.3-1.9,5.9-2.3c0,0,0.1,0,0.1-0.1
		c0.1,0,0.3,0,0.4,0c5.3-0.3,11.7,0.1,15.7,1.7c25.6,10.2-1.9,4.7,7.4,17.4c32.2,43.9,27.5-9.7,40.2-24.7c5.4,6.7,7.3,14.2,8.1,22.5
		c3.7-2,43.5,65.2,56.8,68.3c-1.8,24.5-2,36.6-11.6,59.4c-2.7,6.4-4,18.4-7.5,23.1c-4.1,5.6-22.3,10.4-21.9,17.3
		c-10.7-6.9-21.2-1.7-32.7-7.1c-7.1-3.3-5.3-12.2-9.1-14.6c-5.7-3.6-12.2,0.4-18-3.1c1.4-2,18.6-3.1,9.4-10.7
		c-1.2,5.2-3.7,7-7.5,5.6c1.3-2.7,7.8-12.2,4.6-15.1c-0.6,3.9-8.7,10.4-10.7,13.7c-16-10.2-10.6-23.7-34.5-24.1
		c-11.3-0.2-22.8,6.6-33.4,9.9c-6,1.8-14.4,4.6-22.3,7c-15,4.5-23.6,14.2-34.9-2.5c3.5,5.2-1-32.2-0.1-29.4
		c-0.9-2.8-2.1-5.6-3.4-8.2c0.6-15.6,3-30.9,7.2-45.6C60.8,200.5,64.6,198.8,68.4,197.2z M229.8,332.1
		C222.1,340,232.9,325.4,229.8,332.1L229.8,332.1z"/>
</g>
<g id="Layer_2">
</g>
</svg>
