<?xml version="1.0" encoding="utf-8"?>
<!-- Generator: Adobe Illustrator 22.1.0, SVG Export Plug-In . SVG Version: 6.00 Build 0)  -->
<svg version="1.1" id="Layer_1" focusable="false" xmlns="http://www.w3.org/2000/svg" xmlns:xlink="http://www.w3.org/1999/xlink"
	 x="0px" y="0px" viewBox="0 0 496 512" style="enable-background:new 0 0 496 512;" xml:space="preserve">
<path d="M248,8.1c-137,0-248,111-248,248s111,248,248,248s248-111,248-248S385,8.1,248,8.1z M248.9,394c1,8.3-0.9,14.4,7.8,22.5
	c10.9,10.1-7.3,18.9-19.7,16.2c-13-2.8-15.2-10.5-19.7-22c-5.8-14.9-14.2-25.6-15.3-41.5c-1.3-18.2,1-25.1,3-43.2
	c1-8.9,1.2-31.2,7-38c5-5.8,0.2-26.7,0.7-35.8c0.4-9.2-6.6-16.2-12.3-22.7c-5.7-6.5-16.7-7.1-17-19.7c-0.4-16.2-18.5-27.7-18.7-44.3
	c-0.1-8.8,2.4-17.2,5.3-25.3c0.6-1.6,5-10.5,4.1-11.6c-1-1.4-7-2.1-8.6-2.6c-13.1-4.1-27.2-11.1-32.2-24.8c-0.6-1.7-1-3.5-1.2-5.4
	c8.4-6.1,17.2-11.5,26.4-16.1c0,0.7-0.2,1.3-0.6,2c-3.2,6.3,1,12.7,6.5,15.9c6,3.4,13.4,3.9,20.2,3.7c6.9-0.2,11.9-5.5,18.2-7.7
	c5.8-2,12.1-2.6,18.2-2.5c14.2,0.2,28.7,2.5,42.8,4.3c13.2,1.7,23.2,9.3,33.7,16.9c1.1,0.8,1.8,1.9,2,3c4.1,3.5,9.1,5.3,14.4,7
	c6.6,2.2,13.3,4.4,19,8.5c6.3,4.5,11.3,10.4,16.8,15.7c11.9,11.3,28.5,13.6,41.6,22.9c10.7,7.7,11.3,17.7,7.1,31.3
	c-3.3,10.5-4.6,19.9-13,26.2c-4.3,3.2-8.6,6.3-12.2,10.2c-3.9,4.2-5.4,8.6-6.1,14.3c-1,7.6-4.5,12.4-11.6,15.2
	c-6.8,2.6-13.9,4.4-20.8,6.7c-13,4.3-26.4,9.6-36.2,19.4c-11.3,11.3-12.6,27.3-20.1,40.8c-7.8,14-22.2,22.8-27.3,38.5
	C248.8,378.9,248,386.5,248.9,394z"/>
</svg>
