<?xml version="1.0" encoding="utf-8"?>
<!-- Generator: Adobe Illustrator 22.1.0, SVG Export Plug-In . SVG Version: 6.00 Build 0)  -->
<svg version="1.1"
	 id="svg2273" inkscape:output_extension="org.inkscape.output.svg.inkscape" inkscape:version="0.45.1" sodipodi:docbase="C:\Documents and Settings\Emilio\Escritorio" sodipodi:docname="Codigo QR.svg" sodipodi:version="0.32" xmlns:cc="http://web.resource.org/cc/" xmlns:dc="http://purl.org/dc/elements/1.1/" xmlns:inkscape="http://www.inkscape.org/namespaces/inkscape" xmlns:rdf="http://www.w3.org/1999/02/22-rdf-syntax-ns#" xmlns:sodipodi="http://sodipodi.sourceforge.net/DTD/sodipodi-0.dtd" xmlns:svg="http://www.w3.org/2000/svg"
	 xmlns="http://www.w3.org/2000/svg" xmlns:xlink="http://www.w3.org/1999/xlink" x="0px" y="0px" viewBox="0 0 500 500"
	 style="enable-background:new 0 0 500 500;" xml:space="preserve">
<style type="text/css">
	.st0{fill:#8B8B94;}
</style>
<sodipodi:namedview  bordercolor="#666666" borderopacity="1.0" gridtolerance="10.0" guidetolerance="10.0" id="base" inkscape:current-layer="svg2273" inkscape:cx="250" inkscape:cy="250" inkscape:pageopacity="0.0" inkscape:pageshadow="2" inkscape:window-height="740" inkscape:window-width="1280" inkscape:window-x="-4" inkscape:window-y="-4" inkscape:zoom="1.088" objecttolerance="10.0" pagecolor="#ffffff">
	</sodipodi:namedview>
<g>
	<path class="st0" d="M373.3,277.2c-6.2,0-12.3,0.3-18.5-0.1c-5.4-0.3-7.9-3.6-7.7-9c0.2-5.2,2.8-7.7,8.1-8.2
		c2.4-0.2,5.5,0.1,7.2-1.1c4.3-3.2,2.4-8.3,2-12.5c-0.3-3.4-3.4-4.1-6.5-4.1c-7.3,0-14.7,0-22,0c-4.3,0-6.2,2-6.5,6.4
		c-0.6,9.7-1.8,10.9-11.3,11.3c-4.3,0.2-6.4,2.2-6.4,6.5c0,0.8,0,1.7,0,2.5c0,7.4,0.8,8.3,8.1,8.8c7,0.5,9.6,3.1,9.3,9.5
		c-0.3,5-2.6,7.7-7.7,7.9c-6.3,0.3-12.7,0.2-19,0.2c-7.1,0-8,0.9-8.4,8c-0.4,6.4-2.5,9.1-7.9,9.6c-5.5,0.5-9.1-2.2-9.5-7.7
		c-0.4-6.1-0.2-12.3-0.3-18.5c-0.1-7.7-0.7-8.4-8.4-9.1c-6.5-0.6-8.9-2.7-9.1-8.2c-0.2-6,2.3-8.9,8.4-9.3c8.4-0.6,12.2-6.9,8.3-14.5
		c-0.8-1.7-3.9-3-6-3.1c-9.1-0.8-10.8-2.4-10.9-11.8c0-5.2-0.1-10.3,0.1-15.5c0.3-5.4,3-7.9,8.2-8.1c5.6-0.2,8.3,2.1,9.1,7.6
		c0.2,1.5,0.2,3,0.3,4.5c0.3,3.4,2.1,5.3,5.4,5.3c8.2,0.1,16.3,0.1,24.5,0c3.7,0,5.6-2.2,5.3-5.8c-0.7-10,3.6-12,12.7-11.9
		c21.2,0.2,42.3,0,63.5,0.1c10.1,0,12,2,12.1,11.9c0,5,0,10,0,15c0,6.9,1.1,8.1,8,8.4c7.6,0.4,10.8,4.3,9.4,11.3
		c-1,4.7-4.2,6-8.3,6.4c-8.6,0.7-8.6,0.7-9,8.9c-0.3,5.8-2.4,8.3-8.2,8.6c-6.1,0.3-12.3,0.1-18.5,0.1
		C373.3,277.3,373.3,277.3,373.3,277.2z"/>
	<path class="st0" d="M373.6,189.2c-16.8,0-33.6,0-50.5,0c-9.1,0-11.3-2.2-11.3-11.1c0-33.8,0-67.6,0-101.4c0-8.4,2.2-11,10.5-11
		c34.1-0.1,68.3-0.2,102.4,0c8.7,0,10.7,2.6,10.7,12.5c0.1,31.8,0,63.6,0,95.4c0,2.2,0,4.3-0.1,6.5c-0.6,7-2.8,9.1-9.8,9.1
		c-13.3,0.1-26.6,0-40,0C381.6,189.2,377.6,189.2,373.6,189.2z M374,171.5c12.3,0,24.7,0,37,0c5.4,0,6.8-1.4,6.8-6.8
		c0-24.7,0-49.3,0-74c0-5.7-1.8-7.5-7.5-7.5c-24.5,0-49,0-73.5,0c-5.8,0-7.3,1.6-7.3,7.5c0,24.5,0,49,0,73.5c0,5.9,1.5,7.3,7.5,7.3
		C349.3,171.5,361.7,171.5,374,171.5z"/>
	<path class="st0" d="M127,312.8c16.7,0,33.3,0,50,0c9,0,11.2,2.2,11.2,11.2c0,33.6,0,67.3,0,100.9c0,9-2.2,11.4-11.1,11.4
		c-33.6,0.1-67.3,0.1-100.9,0c-9.2,0-11.5-2.4-11.6-11.6c-0.1-33.5-0.1-67,0-100.4c0-9.5,2.3-11.6,12-11.6
		C93.3,312.8,110.1,312.8,127,312.8z M170.5,375.1c0-12.2,0-24.3,0-36.5c0-6.7-1.3-8-7.8-8.1c-24.3,0-48.6,0-73,0
		c-6.1,0-7.6,1.5-7.6,7.8c0,24.2,0,48.3,0,72.5c0,6.3,1.7,8,8,8c24.3,0,48.6,0,73,0c6.1,0,7.4-1.2,7.4-7.3
		C170.5,399.4,170.5,387.2,170.5,375.1z"/>
	<path class="st0" d="M188.2,127.7c0,16.8,0,33.6,0,50.5c0,8.7-2.3,11-10.9,11c-33.8,0-67.6,0-101.4,0c-8.7,0-11.2-2.2-11.2-10.8
		c-0.1-34-0.1-68,0-101.9c0-8.4,2.4-10.8,10.8-10.9c34.1-0.1,68.3-0.1,102.4,0c8.2,0,10.4,2.6,10.4,11.1
		C188.2,93.7,188.2,110.7,188.2,127.7z M127,171.5c12.3,0,24.7-0.1,37,0c4.7,0,6.6-1.9,6.6-6.5c-0.1-24.8,0-49.6-0.1-74.5
		c0-5.8-1.6-7.3-7.5-7.3c-24.3,0-48.6,0-73,0c-6,0-7.8,1.8-7.8,7.7c0,24.3,0,48.6,0,73c0,6.1,1.6,7.6,7.8,7.6
		C102.3,171.5,114.6,171.5,127,171.5z"/>
	<path class="st0" d="M276.5,394c0-6.2-0.1-12.3,0-18.5c0.2-7.2,2.6-9.5,9.7-9.7c6.2-0.1,12.3,0,18.5,0c5.6,0,6.9-1.4,7.1-7.1
		c0.3-8.2,2.4-10.4,10.4-10.7c6.3-0.2,7-0.9,7.3-7.3c0.3-7.7,3.1-10.6,9.7-10c5,0.4,7.6,2.9,7.7,8c0.2,6.7,0,13.3,0.1,20
		c0.1,5.4,1.8,7.1,7.2,7.2c6.2,0.1,12.3-0.1,18.5,0.1c6.6,0.1,9.3,2.5,9.5,8.3c0.2,6.2-2.2,8.8-9.1,9.2c-6.1,0.3-12.3,0.1-18.5,0.2
		c-6.2,0.1-7.5,1.4-7.7,7.7c-0.2,6.5-2.3,9.2-7.6,9.7c-5.8,0.6-9.1-2.1-9.8-8c-1-9.5-1-9.5-10.5-9.5c-6,0-12-0.1-18,0
		c-5.4,0.1-6.8,1.5-6.9,6.8c0,1,0,2,0,3c0.1,6.3,1.2,7.4,7.6,7.7c7.9,0.3,11.5,4.9,9.5,12c-1.3,4.6-4.9,5.5-8.9,5.8
		c-7.7,0.6-7.7,0.7-8.3,8.5c-0.4,6.2-2.3,8.6-8.5,8.8c-12.1,0.3-24.3,0.3-36.4-0.1c-5.5-0.2-7.7-2.7-8-8.2c-0.2-6-0.2-12,0-18
		c0.2-5.9,3.2-8.7,8.7-8.8c5.5,0,8.4,2.8,8.9,8.6c0.7,8.4,6.3,12,14.2,8.6c1.7-0.7,3.2-3.7,3.4-5.8
		C276.8,406.3,276.5,400.2,276.5,394C276.5,394,276.5,394,276.5,394z"/>
	<path class="st0" d="M101.6,242.2c3.2,0,6.3-0.1,9.5,0c4.3,0.1,6.6-1.7,6.4-6.2c-0.1-1.3,0-2.7,0-4c-0.1-6-1.3-7.1-7.4-7.5
		c-4.1-0.2-8.1-0.6-9.6-5.4c-2.1-6.6,1.2-12,8.2-12.1c23.6-0.2,47.3-0.2,70.9,0c5.8,0,8.3,2.9,8.5,8.3c0.2,5.8-2.2,8.4-8.2,9.1
		c-8.6,0.9-8.6,0.9-9.5,9.7c-0.6,5.7-2.8,7.7-8.7,8.1c-8.2,0.6-8.6,1-8.6,9.2c0,5.7,0.2,11.3-0.1,17c-0.3,6.4-3.1,9.1-8.9,9.1
		c-5.8,0-8.3-2.6-8.9-9.1c-0.6-7.7-7.9-11.6-14.7-7.5c-1.7,1-2.7,4.1-2.9,6.2c-0.4,6-0.1,12-0.2,18c-0.1,7.6-2.4,9.9-9.8,10.1
		c-5.7,0.1-11.3,0.2-17-0.1c-5.8-0.3-8.6-3.4-8.5-8.9c0.1-5.2,2.8-7.9,8.5-8.5c1.5-0.1,3.3,0.4,4.4-0.3c1.9-1.2,3.6-2.9,4.7-4.8
		c0.7-1.3,0.2-3.3,0.2-4.9c-0.1-6.2-1.3-7.5-7.6-7.8c-7.1-0.3-10.2-3-10.1-8.9c0.1-5,2.7-8.1,7.8-8.6c3.8-0.3,7.7-0.1,11.5-0.1
		C101.6,242.2,101.6,242.2,101.6,242.2z"/>
	<path class="st0" d="M205.9,153.5c0-14.3-0.1-28.6,0-43c0.1-6.3,2.3-8.9,7.4-9.4c6.2-0.7,9.6,2.2,10.2,8.7c0.7,8.1,0.7,8.1,8.7,8.9
		c6.7,0.7,9.2,3.3,8.9,9.4c-0.2,5.6-2.9,7.8-9.7,8.1c-6.5,0.3-7.8,1.6-7.8,8.1c0,12.2,0,24.3,0,36.5c0,7,1,8,8,8.4
		c7,0.4,9.8,3.1,9.5,9.4c-0.2,5-2.5,7.9-7.6,8.1c-6.6,0.3-13.3,0.3-20,0c-5.3-0.3-7.5-3.1-7.6-9.2
		C205.8,182.8,205.9,168.1,205.9,153.5z"/>
	<path class="st0" d="M392.2,348c-6.2,0-12.3,0.1-18.5,0c-6-0.1-8.7-2.8-8.8-8.5c-0.1-5.7,2.4-8.4,8.3-8.9c8.5-0.8,8.5-0.8,9.3-9.5
		c0.5-5.6,2.8-7.9,8.7-8.1c5.6-0.2,11.3-0.2,17-0.1c6.8,0.1,9.1,2.4,9.7,9.4c0.6,7.7,0.7,7.7,8.6,8.3c6.3,0.5,8.5,2.2,8.8,8.4
		c0.3,6.5,0.3,13-0.1,19.4c-0.3,5-3.7,7.6-8.8,7.4c-5.2-0.2-7.9-2.8-8.3-8c-0.8-9.7-0.9-9.8-10.8-9.8C402.1,348,397.1,348,392.2,348
		z"/>
	<path class="st0" d="M205.8,365.5c0-8.2-0.1-16.3,0-24.5c0.1-7.6,2.7-10.5,8.9-10.5c6.1,0,8.6,2.9,8.7,10.7c0.1,5.7,0,11.3,0,17
		c0.1,6,1.7,7.6,7.8,7.6c6.3,0.1,12.6-0.1,19,0.1c5.6,0.2,8.3,3,8.5,8.3c0.2,5.2-2.5,8.3-7.9,8.9c-1.3,0.2-2.6,0.3-4,0.3
		c-3.9,0.1-5.5,2.2-5.8,6c-0.8,10.4-2,11.5-12.4,11.5c-4.7,0-9.3,0.1-14,0c-5.9-0.2-8.6-2.6-8.7-8.5c-0.2-9-0.1-18-0.1-27
		C205.9,365.5,205.9,365.5,205.8,365.5z"/>
	<path class="st0" d="M294.1,109.6c0,11.7,0.1,23.3,0,35c-0.1,5.9-2.3,8.5-7.1,9.2c-6.1,0.9-9.7-2.1-10.4-8.4
		c-0.9-8.6-0.9-8.6-9.4-9.2c-5.6-0.4-8.2-3.1-8.3-8.5c-0.1-5.5,2.3-8.1,8-8.8c1.2-0.1,2.3-0.3,3.5-0.3c4.6,0.2,6.2-2.2,6.1-6.5
		c-0.1-12.2-0.1-24.3,0-36.5c0.1-7.3,2.7-9.8,9-9.7c5.6,0.1,8.3,2.6,8.4,8.8C294.2,86.3,294.1,97.9,294.1,109.6
		C294.1,109.6,294.1,109.6,294.1,109.6z"/>
	<path class="st0" d="M366.6,401c3.3,0,6.7-0.1,10,0c4,0.1,5.7-2,5.9-5.8c0.1-1.5,0-3,0.2-4.5c0.6-5,3.2-7.2,8.4-7.2
		c5.3-0.1,8.5,2.4,8.8,7.4c0.3,6.6,0.3,13.3,0,19.9c-0.2,5.3-3.1,7.6-9.5,7.9c-5.8,0.2-11.6,0-17.5,0.1c-6.9,0-7.7,0.8-8.1,7.6
		c-0.4,7.2-2.9,9.8-9.1,9.7c-5.9-0.1-8.5-2.8-8.7-9.7c-0.1-5.5-0.2-11,0.1-16.5c0.3-6.2,2.9-8.6,9-8.9
		C359.6,400.9,363.1,401,366.6,401C366.6,401,366.6,401,366.6,401z"/>
	<path class="st0" d="M241.2,91.8c0-5.7-0.1-11.3,0-17c0.2-6.4,2.9-9,8.8-9c5.9,0,8.7,2.6,8.8,9c0.2,11.5,0.2,23,0,34.5
		c-0.1,6.3-3.1,9.1-8.8,9.1c-5.8,0-8.6-2.8-8.8-9.2C241.1,103.5,241.2,97.6,241.2,91.8z"/>
	<path class="st0" d="M241.1,260.1c0,2.8,0.1,5.7,0,8.5c-0.3,5.9-2.3,8.3-8,8.6c-6.6,0.3-13.3,0.3-19.9-0.1
		c-5.1-0.3-7.3-3.5-7.1-8.9c0.2-5,2.5-7.6,7.6-8.2c0.5-0.1,1-0.1,1.5-0.1c7.9-0.4,8-0.4,8.5-8.2c0.3-4.7,1.6-8.4,7.1-9.3
		c6.1-0.9,10,2,10.4,8.2C241.2,253.8,241.1,256.9,241.1,260.1C241.1,260.1,241.1,260.1,241.1,260.1z"/>
	<path class="st0" d="M241.3,171.4c0-3.3-0.2-6.7,0-10c0.4-4.6,3-7.3,7.8-7.4c6.5-0.1,13-0.2,19.4,0c5.1,0.2,7.7,3.2,7.8,8.4
		c0.1,5.3-2.2,8.1-7.4,8.8c-0.5,0.1-1,0.1-1.5,0.2c-8,0.7-8.2,0.8-8.7,8.7c-0.4,6.5-3.3,9.1-9.4,8.9c-4.7-0.1-7.6-2.5-8-7.2
		C241.1,178.4,241.4,174.9,241.3,171.4C241.3,171.4,241.3,171.4,241.3,171.4z"/>
	<path class="st0" d="M188.8,242.4c3.3,0,6.7-0.3,9.9,0.1c4.7,0.5,7.1,3.7,7.1,8.6c0,4.9-2.4,8.2-7.2,8.5c-6.9,0.4-14,0.4-20.9-0.1
		c-5-0.3-7-3.3-7-8.5c0-5.2,2-7.9,7.1-8.5C181.4,242.1,185.1,242.4,188.8,242.4C188.8,242.4,188.8,242.4,188.8,242.4z"/>
	<path class="st0" d="M82,224.9c0,3.3,0.2,6.7-0.1,10c-0.4,4.8-3.4,7.2-8.4,7.2c-5.1,0-8.3-2.2-8.5-7c-0.4-7.1-0.4-14.3,0.1-21.4
		c0.3-4.7,3.5-6.8,8.7-6.7c4.9,0.1,7.8,2.4,8.1,6.9C82.2,217.6,82,221.2,82,224.9C82,224.9,82,224.9,82,224.9z"/>
	<path class="st0" d="M258.8,303.9c0,5.4-3.3,8.8-8.7,8.9c-5.6,0.1-9.1-3.5-8.9-9.1c0.1-5.4,3.5-8.6,8.9-8.6
		C255.5,295.2,258.8,298.6,258.8,303.9z"/>
	<path class="st0" d="M223.4,303.8c0.1,5.5-3,8.8-8.5,9c-5.7,0.2-9-3.1-9-8.9c0-5.5,3.1-8.7,8.6-8.7
		C220.1,295.2,223.3,298.3,223.4,303.8z"/>
	<path class="st0" d="M303.2,348c-5.6,0.1-8.8-2.9-9-8.4c-0.2-5.7,3.1-9,8.8-9c5.5,0,8.7,3.2,8.8,8.7
		C311.9,344.6,308.6,347.9,303.2,348z"/>
	<path class="st0" d="M382.2,304c0,5.7-3,8.7-8.5,8.8c-5.5,0-8.7-3.1-8.8-8.6c-0.1-5.9,3-9.1,8.8-9
		C379.2,295.2,382.2,298.3,382.2,304z"/>
	<path class="st0" d="M276.3,357.2c-0.1,5.5-3.4,8.6-8.8,8.6c-5.6-0.1-8.7-3.5-8.5-9.4c0.2-5.4,3.5-8.4,9.1-8.2
		C273.5,348.4,276.4,351.6,276.3,357.2z"/>
	<path class="st0" d="M408.7,418.9c5.8-0.1,9.1,3.2,9,8.9c-0.1,5.5-3.2,8.5-8.9,8.5c-5.6,0-8.7-3.1-8.7-8.6
		C400.1,422,403.1,418.9,408.7,418.9z"/>
	<path class="st0" d="M267.8,330.3c-5.7,0.1-8.8-2.8-8.9-8.3c-0.1-5.9,2.9-9.1,8.7-9c5.6,0,8.6,3,8.7,8.6
		C276.4,327.2,273.5,330.2,267.8,330.3z"/>
	<path class="st0" d="M320.5,436.2c-5.7,0-8.6-3-8.6-8.6c0-5.7,3-8.7,8.6-8.7c5.8-0.1,9,3.1,8.9,8.9
		C329.2,433.4,326.3,436.2,320.5,436.2z"/>
	<path class="st0" d="M82.1,268.9c-0.1,5.6-3.2,8.6-8.8,8.5c-5.8-0.1-8.7-3.2-8.5-9.2c0.1-5.6,3.2-8.4,9-8.2
		C79.3,260.1,82.2,263.2,82.1,268.9z"/>
	<path class="st0" d="M426.5,242.1c-5.6,0-8.6-3-8.6-8.7c0-5.6,3-8.7,8.5-8.8c5.9-0.1,8.9,2.9,8.8,8.9
		C435.1,239.2,432.2,242.1,426.5,242.1z"/>
	<path class="st0" d="M320.6,312.9c5.6,0,8.6,3.1,8.7,8.6c0,5.9-3.1,8.9-8.9,8.8c-5.5-0.1-8.5-3.3-8.5-8.9
		C311.9,315.9,315,312.9,320.6,312.9z"/>
	<path class="st0" d="M223.4,233.1c0.1,5.7-2.8,8.8-8.3,9c-5.7,0.2-8.9-2.7-9.1-8.2c-0.2-5.9,2.8-9.1,8.6-9.2
		C220.2,224.5,223.3,227.5,223.4,233.1z"/>
	<path class="st0" d="M285.3,189.1c-5.6,0-8.6-3-8.7-8.6c0-5.6,2.9-8.7,8.5-8.7c5.9-0.1,9,3,8.9,8.8
		C294,186.2,290.9,189.1,285.3,189.1z"/>
	<path class="st0" d="M188.1,286.1c0.1,5.7-2.8,8.8-8.4,8.9c-5.9,0.1-9-2.9-9-8.8c0-5.7,3-8.6,8.6-8.7
		C185,277.6,188,280.5,188.1,286.1z"/>
	<path class="st0" d="M223.4,427.5c0,5.7-2.8,8.6-8.5,8.7c-6,0.1-9-2.9-8.9-8.8c0.1-5.6,3.1-8.5,8.7-8.5
		C220.4,418.9,223.4,421.9,223.4,427.5z"/>
	<path class="st0" d="M435.2,286.2c0,5.8-2.7,8.7-8.4,8.8c-5.9,0.1-9-3-8.9-8.8c0.1-5.7,3-8.6,8.7-8.6
		C432.3,277.6,435.1,280.4,435.2,286.2z"/>
	<path class="st0" d="M400,127.8c0,5.8,0.1,11.7,0,17.5c-0.1,5.5-2.4,8.3-7.8,8.5c-12.5,0.3-25,0.2-37.4,0c-4.7-0.1-7.5-3.1-7.5-7.7
		c-0.2-12.5-0.3-25,0.1-37.4c0.1-5.1,3-7.5,8.2-7.5c12-0.2,24-0.2,35.9,0c5.9,0.1,8.4,2.8,8.6,8.7C400.1,115.8,400,121.8,400,127.8z
		"/>
	<path class="st0" d="M126.2,401c-5.7,0-11.3,0.1-17,0c-6.5-0.1-9.2-2.7-9.2-9.1c-0.1-11.5-0.1-23,0-34.5c0.1-6.4,2.6-9.2,9.1-9.3
		c11.5-0.2,23-0.2,34.4,0c6.7,0.1,9.3,2.8,9.4,9.7c0.2,11.1,0.2,22.3,0,33.5c-0.1,7.3-2.8,9.7-10.2,9.8
		C137.2,401,131.7,401,126.2,401z"/>
	<path class="st0" d="M100,127.5c0-5.8-0.1-11.6,0-17.5c0.1-6.2,2.7-8.9,8.8-9c11.8-0.1,23.6-0.1,35.4,0c5.5,0.1,8.3,2.3,8.4,7.8
		c0.3,12.3,0.3,24.6,0.1,36.9c-0.1,4.8-3,7.9-7.8,8c-12.3,0.2-24.6,0.3-36.9,0c-5.6-0.2-7.9-3-8-8.8C99.9,139.2,100,133.3,100,127.5
		z"/>
</g>
</svg>
