<?xml version="1.0" encoding="utf-8"?>
<!-- Generator: Adobe Illustrator 22.1.0, SVG Export Plug-In . SVG Version: 6.00 Build 0)  -->
<svg version="1.1"
	 id="svg2273" inkscape:output_extension="org.inkscape.output.svg.inkscape" inkscape:version="0.45.1" sodipodi:docbase="C:\Documents and Settings\Emilio\Escritorio" sodipodi:docname="Codigo QR.svg" sodipodi:version="0.32" xmlns:cc="http://web.resource.org/cc/" xmlns:dc="http://purl.org/dc/elements/1.1/" xmlns:inkscape="http://www.inkscape.org/namespaces/inkscape" xmlns:rdf="http://www.w3.org/1999/02/22-rdf-syntax-ns#" xmlns:sodipodi="http://sodipodi.sourceforge.net/DTD/sodipodi-0.dtd" xmlns:svg="http://www.w3.org/2000/svg"
	 xmlns="http://www.w3.org/2000/svg" xmlns:xlink="http://www.w3.org/1999/xlink" x="0px" y="0px" viewBox="0 0 500 500"
	 style="enable-background:new 0 0 500 500;" xml:space="preserve">
<style type="text/css">
	.st0{fill:#8C8C8C;}
</style>
<sodipodi:namedview  bordercolor="#666666" borderopacity="1.0" gridtolerance="10.0" guidetolerance="10.0" id="base" inkscape:current-layer="svg2273" inkscape:cx="250" inkscape:cy="250" inkscape:pageopacity="0.0" inkscape:pageshadow="2" inkscape:window-height="740" inkscape:window-width="1280" inkscape:window-x="-4" inkscape:window-y="-4" inkscape:zoom="1.088" objecttolerance="10.0" pagecolor="#ffffff">
	</sodipodi:namedview>
<g>
	<path class="st0" d="M347.4,367.1c0,18.3-0.1,35.8,0,53.2c0.1,9.7-2.9,18.2-10.9,23.8c-3.5,2.4-7.9,3.9-12.1,4.8
		c-4.8,1.1-8.3-0.2-9.3-6.4c-1.2-7.7-7.5-12.6-14.3-12.5c-6.6,0.1-12.5,5-14.1,12.8c-1,5-3.5,6.6-8.1,6.4c-2.7-0.2-5.4-0.2-8.1,0
		c-4.6,0.2-7.2-1.2-8.1-6.3c-1.5-8-7.1-12.7-14-12.8c-7-0.2-12.7,4.8-14.4,13.2c-0.8,4.2-2.8,6-6.9,5.9c-3.5-0.1-6.9-0.1-10.4,0
		c-4.3,0.1-6.7-1.4-7.6-6.1c-1.6-8.1-7-12.8-13.8-13.1c-6.9-0.2-13.1,4.8-14.7,13c-0.9,4.6-3.1,6.3-7.5,6.2
		c-3.2-0.1-6.6,0.7-9.5-0.2c-2.5-0.8-5.5-3-6.3-5.3c-2.9-8.7-7.4-13.4-14.4-13.6c-7-0.2-12.2,4.9-15.1,13.7
		c-0.7,2.2-3.5,4.9-5.6,5.2c-15.1,2.2-27.2-8.1-28-23.3c-0.1-2.2-0.1-4.4-0.1-6.7c0-97.6,0-195.2,0-292.9c0-38,23.8-61.7,62-61.8
		c69,0,138,0,207.1,0c2.2,0,4.4,0,6.7,0.1c17.3,0.8,27.7,10.6,28.4,27.7c0.6,14.5,0.3,29.1,0.3,43.6c0,23.7,0.1,47.3,0,71
		c0,4.5,0.2,9.6,5.6,9.3c4-0.2,8.2-3,11.7-5.5c2.3-1.6,3.4-6.5,5.5-6.8c5.7-0.9,11.9-0.8,17.5,0.4c1.6,0.3,3.1,5.7,3.2,8.7
		c0.2,31.6,0.2,63.1,0.1,94.7c0,11.1,0.3,22.3-1.2,33.2c-2.4,16.4-12.2,26.9-29.9,26c-17-0.8-34-0.4-51-0.4
		C356.2,366.5,352.5,366.9,347.4,367.1z M345.1,74.2c-3.7,0-6.4,0-9.1,0c-60.6,0-121.3-0.1-181.9-0.1c-30.4,0-50.4,20-50.4,50.6
		c0,33,0,66,0,99.1c0,65.8,0,131.6,0.1,197.4c0,4.2,0.8,9,3,12.5c4.5,7.3,10.3,6.8,14.4-0.5c4.8-8.5,12.2-12.8,21.9-12.5
		c9.7,0.3,16.7,5.1,21.2,13.7c1,1.9,2.9,3.4,4.5,5.1c1.3-1.6,3.1-2.9,4-4.7c4.5-9.1,11.7-14,21.7-14.1c10.4-0.1,17.7,4.9,22.4,14.1
		c1,1.9,3.1,3.2,4.7,4.7c1.5-1.7,3.5-3.1,4.5-5c4.6-9,11.9-13.7,21.9-13.8c10.1-0.1,17.2,4.9,22.1,13.6c1.1,1.9,2.9,3.5,4.4,5.2
		c1.5-1.7,3.4-3.2,4.4-5.1c4.8-8.8,12-13.7,22-13.7c10,0,17.3,4.8,21.9,13.7c0.8,1.5,1.6,2.9,2.4,4.2c9.5-3.3,12.3-8.1,12.4-20.3
		c0.3-89.9,0.3-179.8,1-269.8C338.8,124.2,335.9,99.3,345.1,74.2z M396.8,357.1c-1.7-3.6-3.2-6-4-8.7c-1.5-5.1-3.7-10.4-3.7-15.6
		c-0.2-77.4-0.2-154.7-0.2-232.1c0-3.4-0.1-6.9-0.6-10.3c-1.7-10.9-8.2-16-20.3-16.1c-10.7-0.2-15.6,3.4-17.2,15
		c-1.6,11.9-2.4,24-2.6,36.1c-0.4,41.6-0.3,83.3-0.4,124.9c-0.1,33.2-0.2,66.5-0.2,99.7c0,2.8-1.5,7.1,3.8,7.1
		C366.1,357.2,380.8,357.1,396.8,357.1z M398.5,225.9c0,3.5,0,6.4,0,9.2c0,32-0.5,64.1,0.3,96.1c0.2,7,3.6,14.7,7.6,20.7
		c5.4,8.1,16.1,7.1,20.5-1.7c3-5.9,5.1-13,5.2-19.6c0.4-36.2,0.1-72.4,0.1-108.7c0-2.7,0-5.3,0-9.7c-3.4,1.3-6.6,1.5-7.6,3.1
		C418.8,225.2,410.1,227.9,398.5,225.9z"/>
	<path class="st0" d="M308.3,351.1c-3.7-3.9-6.8-8.7-11.2-11.4c-6.2-3.8-13.5-6-20.2-9c-3.6-1.6-7.3-3.1-10.6-5.2
		c-8.7-5.6-13.9-13.3-12.3-24.1c1.6-10.6,8.1-17.7,18.3-19.9c7-1.5,8.7-4.7,7.9-11.1c-0.4-3.4-0.6-7,0.2-10.3c0.5-2,3.1-3.5,4.8-5.3
		c1.5,1.6,3.2,3.2,4.6,4.9c0.4,0.5,0.2,1.4,0.1,2.2c-1.4,10.7,0.4,18.3,12.9,22.4c5.5,1.8,8.9,10.9,12.4,17.2
		c0.8,1.5-1.6,4.8-2.6,7.3c-2.1-1.5-5.2-2.6-6.1-4.7c-6.3-14.5-20.3-19.6-34.7-12.3c-10.2,5.2-11.5,17.4-2,23.9
		c5.4,3.7,11.8,6,17.8,8.8c5.1,2.4,10.5,4.3,15.5,6.9c9.7,5.2,14.3,14.6,12.9,25.3c-1.5,10.8-7.3,17.4-19,19.5
		c-6.2,1.1-7.2,4-7.1,9.4c0.1,4.2,2.2,11-5,10.8c-6.4-0.2-4.7-6.6-4.4-10.7c0.4-5.8-1.3-8.6-7.3-10.3c-9.6-2.8-15.5-10.3-18.3-19.7
		c-0.6-2,1.5-4.9,2.3-7.4c2.2,1.4,5.4,2.3,6.4,4.3c7.1,14.3,20.2,19.4,35.1,13.1C304.5,363.5,307,358.9,308.3,351.1z"/>
	<path class="st0" d="M217,150.5c27.1,0,54.2,0,81.3,0c2.2,0,4.7-0.5,6.6,0.4c1.7,0.7,3.8,2.9,3.8,4.5c0,1.6-2.1,3.7-3.8,4.5
		c-1.6,0.8-3.9,0.4-5.8,0.4c-54.2,0-108.4,0-162.6,0c-1,0-2.2,0.4-2.9-0.1c-2.5-1.6-4.9-3.4-7.3-5.2c2.4-1.5,4.8-4.2,7.3-4.3
		C161.3,150.4,189.2,150.5,217,150.5z"/>
	<path class="st0" d="M214.1,201c-26.8,0-53.7,0-80.5,0c-2.5,0-5.1,0.2-7.3-0.5c-1.5-0.5-3.5-2.8-3.3-4c0.2-1.7,1.9-3.8,3.6-4.6
		c1.6-0.8,3.8-0.4,5.8-0.4c54.4,0,108.8,0,163.2,0c1.5,0,3.3-0.5,4.4,0.2c2,1.2,3.6,3.1,5.4,4.7c-1.9,1.5-3.5,3.5-5.6,4.5
		c-1.6,0.7-3.9,0.2-5.8,0.2C267.3,201,240.7,201,214.1,201z"/>
	<path class="st0" d="M190.3,231.9c19.9,0,39.8-0.2,59.8,0.2c2.9,0.1,8,2.6,8.2,4.5c0.7,5.1-4.1,5-7.8,5c-40.3,0-80.7,0.1-121-0.2
		c-2.6,0-7.3-2.7-7.5-4.5c-0.6-5.2,4.1-5,7.8-5C150,231.8,170.2,231.9,190.3,231.9z"/>
	<path class="st0" d="M189.9,277.3c-19.9,0-39.8,0-59.8,0c-3.6,0-8.2,0.7-8.4-4.7c-0.1-5.3,4.4-5,8.1-5c40.1,0,80.2-0.1,120.3,0.2
		c2.9,0,8,2.7,8.2,4.6c0.5,5-4.1,4.9-7.9,4.9C230.2,277.3,210.1,277.3,189.9,277.3z"/>
	<path class="st0" d="M169.4,323.2c-11.5,0-23.1,0.3-34.6-0.2c-2.4-0.1-4.8-2.9-7.1-4.4c2.4-1.7,4.9-4.9,7.3-4.9
		c23.1-0.4,46.2-0.4,69.2,0c2.5,0,5,3.1,7.5,4.7c-2.6,1.6-5.1,4.4-7.7,4.5C192.5,323.5,181,323.2,169.4,323.2z"/>
	<path class="st0" d="M165.3,363.4c-11.8,0-23.6,0.2-35.4-0.2c-2.3-0.1-4.5-2.9-6.8-4.4c2.2-1.5,4.3-4.4,6.5-4.4
		c23.6-0.3,47.2-0.4,70.8,0c2.2,0,4.4,3.1,6.6,4.8c-2.4,1.5-4.7,4.2-7.2,4.3c-11.5,0.5-23.1,0.2-34.6,0.2
		C165.3,363.6,165.3,363.5,165.3,363.4z"/>
	<path class="st0" d="M179.9,119.2c-11.3,0-22.7,0-34,0c-3.5,0-8,0.1-7.3-4.7c0.3-1.9,4.7-4.6,7.3-4.6c22.9-0.4,45.8-0.4,68.8,0
		c2.6,0,7,2.7,7.3,4.7c0.7,4.8-3.8,4.6-7.3,4.6C203.1,119.3,191.5,119.2,179.9,119.2z"/>
</g>
</svg>
