<?xml version="1.0" encoding="utf-8"?>
<!-- Generator: Adobe Illustrator 22.1.0, SVG Export Plug-In . SVG Version: 6.00 Build 0)  -->
<svg version="1.1"
	 id="svg2273" inkscape:output_extension="org.inkscape.output.svg.inkscape" inkscape:version="0.45.1" sodipodi:docbase="C:\Documents and Settings\Emilio\Escritorio" sodipodi:docname="Codigo QR.svg" sodipodi:version="0.32" xmlns:cc="http://web.resource.org/cc/" xmlns:dc="http://purl.org/dc/elements/1.1/" xmlns:inkscape="http://www.inkscape.org/namespaces/inkscape" xmlns:rdf="http://www.w3.org/1999/02/22-rdf-syntax-ns#" xmlns:sodipodi="http://sodipodi.sourceforge.net/DTD/sodipodi-0.dtd" xmlns:svg="http://www.w3.org/2000/svg"
	 xmlns="http://www.w3.org/2000/svg" xmlns:xlink="http://www.w3.org/1999/xlink" x="0px" y="0px" viewBox="0 0 500 500"
	 style="enable-background:new 0 0 500 500;" xml:space="preserve">
<style type="text/css">
	.st0{fill:#8C8C8C;}
</style>
<sodipodi:namedview  bordercolor="#666666" borderopacity="1.0" gridtolerance="10.0" guidetolerance="10.0" id="base" inkscape:current-layer="svg2273" inkscape:cx="250" inkscape:cy="250" inkscape:pageopacity="0.0" inkscape:pageshadow="2" inkscape:window-height="740" inkscape:window-width="1280" inkscape:window-x="-4" inkscape:window-y="-4" inkscape:zoom="1.088" objecttolerance="10.0" pagecolor="#ffffff">
	</sodipodi:namedview>
<g>
	<path class="st0" d="M405.8,250.4c0,53.2,0,106.4,0,159.5c0,16.8-9.7,29.9-25.9,34.4c-3.3,0.9-6.7,1.4-10.1,1.4
		c-79.5,0.1-158.9,0.1-238.4,0.1c-18.4,0-34.2-15.1-34.9-33.6c-0.1-2.3-0.1-4.6-0.1-6.9c0-82,0-164-0.1-246c0-3.3,0.9-5.7,3.3-8
		c31.5-31.4,63-62.8,94.4-94.3c2-2,3.9-2.8,6.6-2.8c56.8,0.1,113.5-0.1,170.3,0.1c19.8,0.1,35.1,16.5,34.9,35
		c-0.2,23.8-0.1,47.7-0.1,71.5C405.8,190.7,405.8,220.6,405.8,250.4z M392.5,250.3c0-53.3,0-106.6,0-159.9
		c0-13.6-8.8-22.4-22.3-22.4c-51,0-102,0-153-0.1c-3.7,0-4.8,1-4.7,4.7c0.2,25.5,0.1,51,0.1,76.5c0,12.5-8.9,21.3-21.3,21.4
		c-25.4,0-50.7,0-76.1,0c-5.2,0-5.2,0-5.2,5.3c0,77.7,0,155.3,0,233c0,15,8.4,23.4,23.3,23.4c78.8,0,157.6,0,236.4,0
		c14.4,0,22.9-8.6,22.9-23C392.5,356.1,392.5,303.2,392.5,250.3z M198.9,73.7c-27.6,27.6-55.6,55.5-83.4,83.2c0.8,0,2.2,0,3.5,0
		c23.3,0,46.6,0,69.9,0c7.9,0,10.1-2.1,10.1-10c0-23.6,0-47.1,0-70.7C199,75,198.9,73.8,198.9,73.7z"/>
	<path class="st0" d="M251.7,199.1c28.8,0,57.6,0,86.5,0c5.1,0,5.1,0,5.1,4.9c0,8.7,0,8.7-8.7,8.7c-56.7,0-113.5,0-170.2,0
		c-5.1,0-5.1,0-5.1-5.3c0-8.3,0-8.3,8.3-8.3C195.6,199.1,223.6,199.1,251.7,199.1z"/>
	<path class="st0" d="M343.2,250.3c-61.6,0-122.4,0-183.9,0c0-4-0.1-7.9,0.1-11.8c0-0.6,1.1-1.5,1.9-1.7c0.9-0.3,2-0.1,3.1-0.1
		c58,0,116.1,0,174.1-0.1c4,0,5.2,1.2,4.8,5C343,244.3,343.2,247.1,343.2,250.3z"/>
	<path class="st0" d="M250.9,288c-28.8,0-57.6,0-86.5,0c-5.1,0-5.1,0-5.1-4.9c0-8.7,0-8.7,8.6-8.7c56.8,0,113.5,0,170.3,0
		c5.1,0,5.1,0,5.1,5.3c0,8.3,0,8.3-8.2,8.3C307,288,278.9,288,250.9,288z"/>
	<path class="st0" d="M251.2,325.6c-29.1,0-58.2-0.1-87.3,0.1c-3.7,0-4.8-1-4.8-4.7c0.2-8.9,0-8.9,8.9-8.9c56.6,0,113.3,0,169.9,0
		c5.2,0,5.2,0,5.2,5.2c0,8.4,0,8.4-8.2,8.4C307.1,325.6,279.1,325.6,251.2,325.6z"/>
	<path class="st0" d="M159.3,363.3c0-4.2-0.1-7.8,0.1-11.5c0-0.7,1.2-1.6,2-2c0.7-0.3,1.8-0.1,2.7-0.1c58.1,0,116.3,0,174.4-0.1
		c4,0,5,1.1,4.9,4.9c-0.2,8.8-0.1,8.8-8.9,8.8c-56.3,0-112.7,0-169,0C163.6,363.3,161.8,363.3,159.3,363.3z"/>
</g>
</svg>
